<?xml version="1.0" standalone="no"?>
<!DOCTYPE svg PUBLIC "-//W3C//DTD SVG 20010904//EN"
 "http://www.w3.org/TR/2001/REC-SVG-20010904/DTD/svg10.dtd">
<svg version="1.0" xmlns="http://www.w3.org/2000/svg"
 width="231.000000pt" height="49.000000pt" viewBox="0 0 231.000000 49.000000"
 preserveAspectRatio="xMidYMid meet">

<g transform="translate(0.000000,49.000000) scale(0.100000,-0.100000)"
fill="#000000" stroke="none">
<path d="M1956 428 c-9 -24 -45 -125 -80 -226 l-63 -183 35 3 c35 3 35 3 68
98 17 52 52 152 77 223 l45 127 -33 0 c-30 0 -35 -4 -49 -42z"/>
<path d="M950 436 c-6 -8 -10 -25 -8 -38 6 -44 88 -32 88 13 0 33 -57 51 -80
25z"/>
<path d="M420 240 l0 -170 130 0 130 0 0 30 0 30 -90 0 -90 0 0 40 0 40 75 0
75 0 0 30 0 30 -75 0 -75 0 0 40 0 40 85 0 85 0 0 30 0 30 -125 0 -125 0 0
-170z"/>
<path d="M108 315 l-108 -40 0 -37 c0 -34 3 -37 43 -51 23 -8 73 -27 110 -41
l68 -26 -3 31 c-3 30 -8 34 -75 57 -40 14 -70 29 -67 33 2 4 34 17 70 29 66
22 78 34 72 67 -3 17 -12 15 -110 -22z"/>
<path d="M2052 326 c3 -28 8 -33 68 -54 36 -13 68 -27 73 -31 4 -4 -23 -18
-60 -31 -82 -28 -85 -31 -81 -63 l3 -25 110 42 c109 42 110 42 110 75 0 32 -1
33 -113 76 l-113 43 3 -32z"/>
<path d="M875 333 c-11 -3 -26 -10 -34 -17 -11 -8 -15 -8 -18 2 -3 6 -20 12
-39 12 l-34 0 0 -130 0 -130 35 0 35 0 0 78 c0 88 16 122 56 122 21 0 24 5 24
35 0 19 -1 34 -2 34 -2 -1 -12 -4 -23 -6z"/>
<path d="M1123 325 c-36 -16 -39 -23 -20 -49 11 -15 17 -16 35 -7 46 25 112 4
112 -35 0 -10 -14 -14 -59 -14 -71 0 -111 -25 -111 -70 0 -42 9 -59 41 -75 36
-19 72 -19 109 0 17 9 30 11 30 5 0 -5 14 -10 30 -10 l30 0 0 101 c0 55 -5
109 -11 121 -23 43 -122 61 -186 33z m127 -162 c0 -9 -7 -25 -17 -35 -29 -32
-83 -18 -83 23 0 21 14 27 63 28 28 1 37 -3 37 -16z"/>
<path d="M1498 326 c-16 -8 -28 -11 -28 -5 0 5 -16 9 -35 9 l-35 0 0 -130 0
-130 35 0 35 0 0 80 c0 73 2 83 25 106 15 15 32 23 41 20 9 -3 19 -6 23 -6 17
0 31 -55 31 -125 l0 -75 35 0 35 0 0 89 c0 48 -5 102 -11 120 -19 54 -93 77
-151 47z"/>
<path d="M950 200 l0 -130 35 0 35 0 0 130 0 130 -35 0 -35 0 0 -130z"/>
</g>
</svg>
