<?xml version="1.0" standalone="no"?>
<!DOCTYPE svg PUBLIC "-//W3C//DTD SVG 20010904//EN"
 "http://www.w3.org/TR/2001/REC-SVG-20010904/DTD/svg10.dtd">
<svg version="1.0" xmlns="http://www.w3.org/2000/svg"
 width="200.000000pt" height="200.000000pt" viewBox="0 0 200.000000 200.000000"
 preserveAspectRatio="xMidYMid meet">

<g transform="translate(0.000000,200.000000) scale(0.100000,-0.100000)"
fill="#000000" stroke="none">
<path d="M130 1605 l0 -85 870 0 870 0 0 85 0 85 -870 0 -870 0 0 -85z"/>
<path d="M540 1085 l0 -85 665 0 665 0 0 85 0 85 -665 0 -665 0 0 -85z"/>
<path d="M130 585 l0 -85 870 0 870 0 0 85 0 85 -870 0 -870 0 0 -85z"/>
</g>
</svg>
