<?xml version="1.0" standalone="no"?>
<!DOCTYPE svg PUBLIC "-//W3C//DTD SVG 20010904//EN"
 "http://www.w3.org/TR/2001/REC-SVG-20010904/DTD/svg10.dtd">
<svg version="1.0" xmlns="http://www.w3.org/2000/svg"
 width="452.000000pt" height="452.000000pt" viewBox="0 0 452.000000 452.000000"
 preserveAspectRatio="xMidYMid meet">

<g transform="translate(0.000000,452.000000) scale(0.100000,-0.100000)"
fill="#000000" stroke="none">
<path d="M540 4151 c-69 -21 -121 -65 -156 -131 -18 -34 -19 -96 -19 -1760 l0
-1725 28 -47 c31 -53 79 -94 134 -114 56 -20 3410 -20 3466 0 55 20 103 61
134 114 l28 47 3 1704 c1 1154 -1 1715 -8 1742 -15 53 -68 119 -120 149 l-45
25 -1710 2 c-940 1 -1721 -2 -1735 -6z m1898 -2378 l-3 -668 -23 -65 c-76
-213 -235 -314 -492 -313 -168 0 -293 50 -418 167 -57 53 -142 165 -142 186 0
9 266 170 280 170 6 0 10 -4 10 -9 0 -5 20 -31 45 -59 58 -64 125 -94 212 -93
79 0 118 20 147 76 21 39 21 53 24 658 l3 617 180 0 180 0 -3 -667z m914 653
c128 -28 231 -96 303 -201 33 -48 37 -57 24 -69 -21 -19 -237 -156 -247 -156
-4 0 -22 20 -39 43 -100 142 -330 121 -350 -32 -14 -100 40 -154 241 -241 174
-76 263 -125 339 -185 62 -49 130 -144 147 -204 54 -193 22 -364 -91 -485
-109 -116 -252 -170 -454 -169 -254 1 -433 91 -557 282 l-48 74 132 89 c73 48
136 88 139 88 3 0 20 -22 37 -49 51 -79 134 -148 200 -167 109 -32 240 0 283
69 16 26 19 45 17 99 -3 63 -6 71 -41 106 -24 25 -76 57 -140 87 -300 140
-328 156 -402 229 -79 79 -117 145 -134 240 -40 220 44 407 227 504 110 59
273 77 414 48z"/>
</g>
</svg>
