<?xml version="1.0" standalone="no"?>
<!DOCTYPE svg PUBLIC "-//W3C//DTD SVG 20010904//EN"
 "http://www.w3.org/TR/2001/REC-SVG-20010904/DTD/svg10.dtd">
<svg version="1.0" xmlns="http://www.w3.org/2000/svg"
 width="280.000000pt" height="280.000000pt" viewBox="0 0 280.000000 280.000000"
 preserveAspectRatio="xMidYMid meet">

<g transform="translate(0.000000,280.000000) scale(0.100000,-0.100000)"
fill="#000000" stroke="none">
<path d="M0 1400 l0 -1400 1400 0 1400 0 0 1400 0 1400 -1400 0 -1400 0 0
-1400z m1560 838 c144 -27 304 -108 407 -207 12 -12 26 -21 30 -21 10 0 68 96
78 130 8 24 8 23 22 -15 32 -89 84 -282 109 -402 38 -180 38 -365 1 -506 -43
-162 -119 -290 -240 -404 -275 -260 -704 -298 -1026 -89 -39 25 -71 47 -71 48
0 2 12 4 26 4 38 3 64 32 64 72 0 45 -24 72 -64 72 -47 0 -74 -24 -78 -67 l-3
-37 -56 67 c-69 84 -140 217 -170 322 -33 114 -33 316 -1 427 29 100 64 178
110 247 188 284 523 423 862 359z"/>
<path d="M2070 2063 c0 -5 -22 -40 -50 -76 -92 -122 -271 -237 -424 -272 -38
-9 -147 -23 -242 -30 -146 -12 -185 -19 -248 -43 -129 -50 -213 -128 -268
-248 -18 -41 -22 -67 -22 -159 -1 -96 2 -116 23 -155 49 -95 95 -124 170 -110
191 36 439 112 528 162 182 101 350 256 417 386 10 19 20 31 23 28 10 -9 -72
-168 -117 -227 -99 -132 -234 -247 -367 -313 -53 -27 -374 -136 -398 -136 -3
0 -5 -3 -5 -7 0 -5 138 -8 308 -7 252 0 320 3 382 17 114 26 208 76 273 147
66 71 100 136 128 250 19 74 21 102 16 235 -6 158 -28 282 -82 460 -25 82 -45
126 -45 98z"/>
</g>
</svg>
